<svg width="54" height="54" viewBox="0 0 54 54" fill="none" xmlns="http://www.w3.org/2000/svg">
<rect width="54" height="54" rx="10" fill="url(#paint0_linear_0_1)"/>
<path d="M6.18388 44V11.36H17.2239C21.1279 11.36 24.1039 12.448 26.1519 14.624C28.1999 16.8 29.2239 20 29.2239 24.224V31.088C29.2239 35.344 28.1999 38.56 26.1519 40.736C24.1039 42.912 21.1279 44 17.2239 44H6.18388ZM16.9839 16.88H11.9439V38.48H16.9839C19.2559 38.48 20.8719 37.92 21.8319 36.8C22.8239 35.68 23.3199 33.776 23.3199 31.088V24.224C23.3199 21.568 22.8239 19.68 21.8319 18.56C20.8719 17.44 19.2559 16.88 16.9839 16.88Z" fill="white"/>
<path d="M33.1077 31.088C33.1077 33.424 33.6197 35.344 34.6437 36.848C35.6677 38.32 37.3477 39.056 39.6837 39.056C40.6437 39.056 41.6357 38.928 42.6597 38.672C43.7157 38.416 45.0117 37.984 46.5477 37.376L48.3237 42.368C46.5957 43.136 44.9957 43.68 43.5237 44C42.0837 44.32 40.6917 44.48 39.3477 44.48C36.6597 44.48 34.4037 43.904 32.5797 42.752C30.7877 41.6 29.4437 40.016 28.5477 38C27.6517 35.984 27.2037 33.68 27.2037 31.088V24.224C27.2037 21.632 27.6517 19.328 28.5477 17.312C29.4437 15.296 30.7877 13.728 32.5797 12.608C34.4037 11.456 36.6597 10.88 39.3477 10.88C40.6597 10.88 42.0197 11.04 43.4277 11.36C44.8357 11.648 46.3717 12.16 48.0357 12.896L46.2597 17.984C44.7877 17.376 43.5557 16.944 42.5637 16.688C41.5717 16.432 40.6117 16.304 39.6837 16.304C37.3477 16.304 35.6677 17.04 34.6437 18.512C33.6197 19.984 33.1077 21.888 33.1077 24.224V31.088Z" fill="white"/>
<defs>
<linearGradient id="paint0_linear_0_1" x1="-0.9" y1="-0.9" x2="63" y2="63" gradientUnits="userSpaceOnUse">
<stop stop-color="#6383F9"/>
<stop offset="0.5" stop-color="#2955F3"/>
<stop offset="1" stop-color="#04218C"/>
</linearGradient>
</defs>
</svg>
